<svg data-v-423bf9ae="" xmlns="http://www.w3.org/2000/svg" viewBox="0 0 341 90" class="iconLeft"><!----><defs data-v-423bf9ae=""><linearGradient data-v-423bf9ae="" gradientTransform="rotate(25)" id="2218ed48-493a-4430-b524-bea7db8706bb" x1="0%" y1="0%" x2="100%" y2="0%"><stop data-v-423bf9ae="" offset="0%" style="stop-color: rgb(34, 82, 110); stop-opacity: 1;"></stop><stop data-v-423bf9ae="" offset="100%" style="stop-color: rgb(189, 180, 150); stop-opacity: 1;"></stop></linearGradient></defs><!----><g data-v-423bf9ae="" id="ada52835-ca9b-4664-8279-1c5e48336967" fill="#ffffff" transform="matrix(6.166495665241285,0,0,6.166495665241285,106.11510456255165,-6.644399964607203)"><path d="M0.63 9.42L0.63 9.42L0.63 9.42Q0.63 8.44 0.93 7.71L0.93 7.71L0.93 7.71Q1.23 6.97 1.72 6.48L1.72 6.48L1.72 6.48Q2.21 5.99 2.85 5.74L2.85 5.74L2.85 5.74Q3.49 5.49 4.16 5.49L4.16 5.49L4.16 5.49Q5.73 5.49 6.64 6.45L6.64 6.45L6.64 6.45Q7.55 7.41 7.55 9.27L7.55 9.27L7.55 9.27Q7.55 9.45 7.53 9.67L7.53 9.67L7.53 9.67Q7.52 9.88 7.50 10.05L7.50 10.05L2.77 10.05L2.77 10.05Q2.84 10.70 3.37 11.07L3.37 11.07L3.37 11.07Q3.91 11.45 4.80 11.45L4.80 11.45L4.80 11.45Q5.38 11.45 5.93 11.35L5.93 11.35L5.93 11.35Q6.48 11.24 6.83 11.09L6.83 11.09L7.11 12.78L7.11 12.78Q6.94 12.87 6.66 12.95L6.66 12.95L6.66 12.95Q6.38 13.03 6.04 13.10L6.04 13.10L6.04 13.10Q5.70 13.16 5.31 13.20L5.31 13.20L5.31 13.20Q4.91 13.24 4.52 13.24L4.52 13.24L4.52 13.24Q3.53 13.24 2.79 12.95L2.79 12.95L2.79 12.95Q2.06 12.66 1.57 12.14L1.57 12.14L1.57 12.14Q1.09 11.63 0.86 10.93L0.86 10.93L0.86 10.93Q0.63 10.23 0.63 9.42ZM2.77 8.62L5.53 8.62L5.53 8.62Q5.52 8.36 5.44 8.11L5.44 8.11L5.44 8.11Q5.36 7.85 5.20 7.66L5.20 7.66L5.20 7.66Q5.04 7.46 4.79 7.34L4.79 7.34L4.79 7.34Q4.55 7.21 4.19 7.21L4.19 7.21L4.19 7.21Q3.84 7.21 3.58 7.33L3.58 7.33L3.58 7.33Q3.33 7.45 3.16 7.64L3.16 7.64L3.16 7.64Q3.00 7.84 2.91 8.10L2.91 8.10L2.91 8.10Q2.81 8.36 2.77 8.62L2.77 8.62ZM12.89 13.05L11.16 13.05L11.16 13.05Q10.44 11.65 9.71 9.77L9.71 9.77L9.71 9.77Q8.97 7.90 8.32 5.68L8.32 5.68L10.53 5.68L10.53 5.68Q10.67 6.23 10.86 6.87L10.86 6.87L10.86 6.87Q11.05 7.50 11.25 8.16L11.25 8.16L11.25 8.16Q11.45 8.81 11.66 9.42L11.66 9.42L11.66 9.42Q11.86 10.04 12.05 10.54L12.05 10.54L12.05 10.54Q12.24 10.04 12.45 9.42L12.45 9.42L12.45 9.42Q12.66 8.81 12.86 8.16L12.86 8.16L12.86 8.16Q13.06 7.50 13.25 6.87L13.25 6.87L13.25 6.87Q13.44 6.23 13.58 5.68L13.58 5.68L15.74 5.68L15.74 5.68Q15.08 7.90 14.34 9.77L14.34 9.77L14.34 9.77Q13.61 11.65 12.89 13.05L12.89 13.05ZM16.51 9.42L16.51 9.42L16.51 9.42Q16.51 8.44 16.81 7.71L16.81 7.71L16.81 7.71Q17.11 6.97 17.60 6.48L17.60 6.48L17.60 6.48Q18.09 5.99 18.73 5.74L18.73 5.74L18.73 5.74Q19.36 5.49 20.03 5.49L20.03 5.49L20.03 5.49Q21.60 5.49 22.51 6.45L22.51 6.45L22.51 6.45Q23.42 7.41 23.42 9.27L23.42 9.27L23.42 9.27Q23.42 9.45 23.41 9.67L23.41 9.67L23.41 9.67Q23.39 9.88 23.38 10.05L23.38 10.05L18.65 10.05L18.65 10.05Q18.72 10.70 19.25 11.07L19.25 11.07L19.25 11.07Q19.78 11.45 20.68 11.45L20.68 11.45L20.68 11.45Q21.25 11.45 21.80 11.35L21.80 11.35L21.80 11.35Q22.36 11.24 22.71 11.09L22.71 11.09L22.99 12.78L22.99 12.78Q22.82 12.87 22.54 12.95L22.54 12.95L22.54 12.95Q22.26 13.03 21.92 13.10L21.92 13.10L21.92 13.10Q21.57 13.16 21.18 13.20L21.18 13.20L21.18 13.20Q20.79 13.24 20.40 13.24L20.40 13.24L20.40 13.24Q19.40 13.24 18.67 12.95L18.67 12.95L18.67 12.95Q17.93 12.66 17.45 12.14L17.45 12.14L17.45 12.14Q16.97 11.63 16.74 10.93L16.74 10.93L16.74 10.93Q16.51 10.23 16.51 9.42ZM18.65 8.62L21.41 8.62L21.41 8.62Q21.39 8.36 21.32 8.11L21.32 8.11L21.32 8.11Q21.24 7.85 21.08 7.66L21.08 7.66L21.08 7.66Q20.92 7.46 20.67 7.34L20.67 7.34L20.67 7.34Q20.43 7.21 20.06 7.21L20.06 7.21L20.06 7.21Q19.71 7.21 19.46 7.33L19.46 7.33L19.46 7.33Q19.21 7.45 19.04 7.64L19.04 7.64L19.04 7.64Q18.87 7.84 18.78 8.10L18.78 8.10L18.78 8.10Q18.69 8.36 18.65 8.62L18.65 8.62ZM25.03 13.05L25.03 5.94L25.03 5.94Q25.56 5.78 26.40 5.65L26.40 5.65L26.40 5.65Q27.24 5.52 28.17 5.52L28.17 5.52L28.17 5.52Q29.11 5.52 29.73 5.76L29.73 5.76L29.73 5.76Q30.35 6.01 30.72 6.45L30.72 6.45L30.72 6.45Q31.08 6.90 31.23 7.52L31.23 7.52L31.23 7.52Q31.39 8.13 31.39 8.89L31.39 8.89L31.39 13.05L29.30 13.05L29.30 9.14L29.30 9.14Q29.30 8.13 29.04 7.71L29.04 7.71L29.04 7.71Q28.77 7.29 28.04 7.29L28.04 7.29L28.04 7.29Q27.82 7.29 27.57 7.31L27.57 7.31L27.57 7.31Q27.31 7.34 27.12 7.36L27.12 7.36L27.12 13.05L25.03 13.05ZM33.21 10.04L33.21 3.85L35.29 3.51L35.29 5.68L37.80 5.68L37.80 7.42L35.29 7.42L35.29 10.01L35.29 10.01Q35.29 10.67 35.52 11.06L35.52 11.06L35.52 11.06Q35.76 11.45 36.46 11.45L36.46 11.45L36.46 11.45Q36.79 11.45 37.15 11.39L37.15 11.39L37.15 11.39Q37.51 11.33 37.80 11.21L37.80 11.21L38.09 12.84L38.09 12.84Q37.72 12.99 37.25 13.10L37.25 13.10L37.25 13.10Q36.79 13.22 36.12 13.22L36.12 13.22L36.12 13.22Q35.27 13.22 34.71 12.98L34.71 12.98L34.71 12.98Q34.15 12.75 33.81 12.34L33.81 12.34L33.81 12.34Q33.47 11.93 33.34 11.34L33.34 11.34L33.34 11.34Q33.21 10.75 33.21 10.04L33.21 10.04Z"></path></g><!----><g data-v-423bf9ae="" id="2e5e1c4b-03df-459e-bee2-ee3c706ae747" transform="matrix(2.8125,0,0,2.8125,0,0)" stroke="none" fill="#ffffff"><path d="M11.579 32H32L21.789 14.314z"></path><circle cx="8.683" cy="8.683" r="8.683"></circle></g><!----></svg>